PathFileType	4	(X/Y/Z)	57_1_35_p1_0-324_filt_butterworth.trc
DataRate	CameraRate	NumFrames	NumMarkers	Units	OrigDataRate	OrigDataStartFrame	OrigNumFrames
59.0	59.0	6	27	m	59.0	81	324
Frame#	Time	RHip			RKnee			RAnkle			RBigToe			RSmallToe			RHeel			LHip			LKnee			LAnkle			LBigToe			LSmallToe			LHeel			Neck			Head			Nose			RShoulder			RElbow			RWrist			RThumb			RIndex			RPinky			LShoulder			LElbow			LWrist			LThumb			LIndex			LPinky			
		X1	Y1	Z1	X2	Y2	Z2	X3	Y3	Z3	X4	Y4	Z4	X5	Y5	Z5	X6	Y6	Z6	X7	Y7	Z7	X8	Y8	Z8	X9	Y9	Z9	X10	Y10	Z10	X11	Y11	Z11	X12	Y12	Z12	X13	Y13	Z13	X14	Y14	Z14	X15	Y15	Z15	X16	Y16	Z16	X17	Y17	Z17	X18	Y18	Z18	X19	Y19	Z19	X20	Y20	Z20	X21	Y21	Z21	X22	Y22	Z22	X23	Y23	Z23	X24	Y24	Z24	X25	Y25	Z25	X26	Y26	Z26	X27	Y27	Z27	
81	1.3728813559322033	0.250682347492413	0.6075923625291201	0.8610111192390808	0.24448443546653148	0.22794701942084528	0.7966601095757004	0.24828800925777514	-0.21983342498159908	0.8237013796020219	0.24015082750294184	-0.2102328634944487	0.644912487761727	0.3075131058746376	-0.21574083415156078	0.6754036965139693	0.23623659814643722	-0.3128820111415512	0.9132946413650829	0.035806584697149334	0.5979324167362843	0.8456488474278977	0.04170207334484471	0.19840870648840384	0.8228110129206696	0.06883370167211642	-0.2499747999773087	0.851815216995036	0.08173681163017621	-0.19327570553336174	0.6301426875580548	0.027714963902284694	-0.24496469015220734	0.7070077280429403	0.09044773296706833	-0.31480969372313444	0.8902727905055113	0.12926536041810743	1.1419112463272971	0.8342804138698052	0.12170669750974294	1.396047211186774	0.753057237380836	0.13315399161257852	1.27751494242697	0.6735048455565653	0.28851830250610244	1.0943098385530217	0.8405955095753037	0.35054228599619514	0.8598826193437303	0.8582190868799642	0.23939148517921344	0.9166923168939448	0.6210858843303255	0.16149537867921554	0.9581038109576382	0.5487559389008448	0.15111767940403503	0.9525193461038791	0.5094884812104787	0.17600174203454552	0.9012545986719663	0.5306134796875115	-0.03420069609739156	1.086341947522035	0.809767136125127	-0.08487194551253438	0.8536204353079929	0.820792718401643	0.06206562099939912	0.8927624252095516	0.5492932466969788	0.11822531431801414	0.9296889072366027	0.4819532083365198	0.12194089139942227	0.9131267010030284	0.4623130449867032	0.12112734323521147	0.8733529112140644	0.4811847634377665	
82	1.3898305084745763	0.2510301065338541	0.6099433469438957	0.8612556745835587	0.24444483718341636	0.2285176612637474	0.7966941249769663	0.2481308581045147	-0.2198751291811211	0.8238959109944153	0.24069064733957374	-0.21012721478433685	0.6443210619860336	0.30750068313868206	-0.21570808789788237	0.675270552685088	0.23616775372822896	-0.31265575343634194	0.9131808498196053	0.03557031028486436	0.600051465175541	0.8456082968796516	0.04147351157734603	0.20000598255449975	0.8228853054563563	0.06859307608988313	-0.24956631195235618	0.8518685926386707	0.08176880701369435	-0.19323873895353233	0.6300860788664775	0.027842150969538536	-0.24508039446704422	0.7067825217256661	0.0903166631628105	-0.3151357944319995	0.8909919316713013	0.12870827835998291	1.1435761981010963	0.8318366888785242	0.12171461338748195	1.3955693809835708	0.7526871374049641	0.133065802447619	1.2776925808765696	0.6734298126235894	0.2877402500649208	1.0970322735245066	0.8384876764454179	0.3483664470743103	0.8578338625802552	0.8653997790556114	0.2471336829023736	0.9315495793474762	0.6197878606738603	0.1689544018054151	0.9798830018577421	0.55492805548457	0.1614476908676758	0.9752932140551742	0.5106912529386107	0.17902810879167724	0.9264288673147854	0.5224488533645653	-0.03316208785070843	1.0872549843231587	0.8100525315137659	-0.08359934288281856	0.8566169781161379	0.8116123115235954	0.059761183002803815	0.9179417538211342	0.5479289236879574	0.1181334186176019	0.9616599794020588	0.4814713205522244	0.12105237804083409	0.9488525597708227	0.4644346404751787	0.1204295334921053	0.9067340952591618	0.48019371796361054	
83	1.4067796610169492	0.2512897469610902	0.6123770164198522	0.8614200585381545	0.2444656254915198	0.22923543523610942	0.796765183948172	0.24774151150326326	-0.2198558663606509	0.8241697025975054	0.24069693092961214	-0.20951568546177918	0.6426678506153036	0.30744196927369527	-0.21567883029252444	0.6751165154804909	0.23598415183087065	-0.31216735277249474	0.9127387813746404	0.03538247679978033	0.602144176811066	0.8456048554480521	0.041427923062810366	0.2014114527922948	0.8230912386604194	0.06841879410626918	-0.24914836055892794	0.8519894459392793	0.0818027216548139	-0.19322600500443377	0.630089048635329	0.028049841012271495	-0.24539212981957334	0.7064078865508286	0.0902657565181067	-0.31527804692687367	0.8914730442073966	0.12818321842310315	1.1446520709843968	0.8295214655695711	0.12167431630903415	1.3950305794920381	0.7520952531444186	0.13300097988624007	1.277601207672574	0.6737622756857932	0.2869260788144156	1.100040738203462	0.8360417470861183	0.34730863264972167	0.85870952561192	0.8624396844718853	0.253374607925437	0.9461810604190999	0.6165099278694677	0.17545144753271139	1.0002065522753087	0.5612349741140532	0.17092713914038432	0.9970323358801336	0.5096061695886723	0.18156005805031333	0.950634247325094	0.5129935922508113	-0.03217312398265447	1.0881213281610769	0.8104862630434014	-0.08147107927447114	0.8571344798351465	0.8021974908007226	0.05678875368240638	0.9400346059164095	0.5513971964802112	0.11624491105847572	0.989893863793452	0.48676434187225875	0.11844658121418664	0.9817284473729371	0.47114009217068176	0.1179010077022655	0.9372439032133609	0.48408548485883696	
84	1.423728813559322	0.2514499389051498	0.6148188505981723	0.8614254886166933	0.2444506371102546	0.2301703390285485	0.7965821608689142	0.24716282160977293	-0.21978845942672592	0.8243223314500384	0.24001532623164912	-0.20878258527905902	0.6405672761341866	0.3073600789549606	-0.21568541530944027	0.6749941118986388	0.23574873992193307	-0.31156643876921086	0.9121447467681976	0.0351809993152708	0.6041539743976772	0.8456237021073209	0.04149443526227094	0.2026259749084322	0.8233796722037556	0.06832667517170472	-0.24874533705201943	0.8521782078937528	0.08183543099505455	-0.1932432087677779	0.6301587203204105	0.02827289532408742	-0.24591961328080988	0.7059567406935932	0.09028003389231358	-0.3153114404003319	0.8917168218499659	0.12775416095353334	1.1448496245523914	0.8276725911926748	0.12160540603266826	1.3944385476838168	0.7514860265306336	0.13301547795952823	1.2771014575773587	0.6740901654736791	0.28602764789051427	1.1029805296894075	0.833165688491838	0.34665416746822675	0.862387982567465	0.8492252772336873	0.25751114322956103	0.9605929248907137	0.6129722561044134	0.18107369947023222	1.0201445665480047	0.5684928023997546	0.17867004888504434	1.0187881228501998	0.5060560875808346	0.1828055358388493	0.9745713174616334	0.5033874606426867	-0.03140808124688092	1.0887456913211535	0.8110130678498524	-0.07868080565356364	0.8554966830263451	0.7936104817923224	0.05316266274581458	0.9591982058530409	0.558211786040685	0.1121016214267194	1.0139573401988848	0.4974298899861621	0.11408542131923792	1.0099339687857725	0.48102709348646044	0.11359412701035518	0.963770153973731	0.49221613111630946	
85	1.4406779661016949	0.251468386811833	0.617106028796553	0.8612204703133545	0.24435101594227296	0.23121133125342597	0.7961340298014906	0.24649082361094155	-0.21984971485899352	0.824416082961601	0.2387741173307595	-0.20820641698096828	0.6386150227162535	0.307300638606663	-0.21579059835582504	0.6749966051788232	0.2355271451373091	-0.31100228344250364	0.9115928444840967	0.03490460634530032	0.6059872775665164	0.845650856702336	0.04157415756291333	0.20367045594727765	0.8236771032530114	0.06832735685574312	-0.24841273126686358	0.8524171205378248	0.08186396888944195	-0.193281629436691	0.6302658953243827	0.028464330291005327	-0.24662910490642576	0.70551473221973	0.09034691318448704	-0.3152530361869693	0.8917494164888582	0.12747104722684682	1.1441737819652633	0.8265800743062512	0.12162553342466334	1.3937982406775893	0.751282010507921	0.13309021026757117	1.2761772710715824	0.6741990728050149	0.28485378255320704	1.1054674799808537	0.8299059086740006	0.3455317177692394	0.8676012309392227	0.8283352594792426	0.25896509024499903	0.9753729222310753	0.6099405483563654	0.18560303357405572	1.0408486305342617	0.5775842408393984	0.18335118554180985	1.0413649856296958	0.5012984694359135	0.18215292128436422	0.9989675498320044	0.49346601814421664	-0.030894757806027212	1.0890416045134437	0.8113408988188935	-0.07569945580295227	0.8528628625797654	0.7862594809864704	0.04915088287825302	0.9764090413203125	0.5665637721438084	0.10583336155307256	1.0345590353442176	0.5118610930902774	0.10868557213974916	1.0336629354731206	0.4924466178729693	0.1080768132570458	0.9869672154405459	0.5029580146567442	
86	1.4576271186440677	0.2513063117324056	0.619075971719532	0.8607673711382353	0.24418548823708666	0.2322001813075292	0.7956313953803523	0.24582170109071413	-0.22014328396921393	0.8245787491839948	0.23728034451818614	-0.2077232502546674	0.6369130255527761	0.3072910229413497	-0.21600914133839774	0.6751561262095326	0.2353539063469058	-0.31056471940316666	0.9111697631747822	0.034534319043736474	0.607528496749964	0.8456534556876081	0.041604642519552426	0.20455801012328553	0.8239165327161955	0.06840436448111703	-0.24819437302171782	0.8526729139556333	0.08188325738260771	-0.19332639112456415	0.6303752354270552	0.028596035887867414	-0.24743682602218206	0.7051512471455389	0.09046692006649223	-0.31507575605654187	0.8915977850101158	0.12733594380509716	1.1428532468200463	0.8262909825347788	0.12185786390751438	1.3932014514176916	0.7519066602620196	0.1331823597495956	1.2749913632316783	0.6741363867965613	0.2832352655938722	1.1071907654842654	0.8265734750594746	0.34358011309357495	0.8731341730241727	0.8036819142256816	0.2576200327689714	0.9913092520805126	0.6068184971119166	0.18889861179435646	1.0623940218199	0.5881079375923732	0.18422798730693163	1.0650810767148238	0.4965749902679223	0.179987962418496	1.023964051792462	0.4825809090596199	-0.030554348089299528	1.0891358198740106	0.811037815110282	-0.07292408329746577	0.8510489166468301	0.7798267752656903	0.04512362004722727	0.9924339901910303	0.5750016763822798	0.09782333870200245	1.0527863900644783	0.527967809053208	0.10301479222366886	1.0544880059651782	0.5039978500833436	0.10180165470240596	1.0084339646273608	0.514158178020655	
